<?xml version="1.0" encoding="utf-8"?>
<!-- Generator: Adobe Illustrator 19.2.1, SVG Export Plug-In . SVG Version: 6.00 Build 0)  -->
<!DOCTYPE svg PUBLIC "-//W3C//DTD SVG 1.1//EN" "http://www.w3.org/Graphics/SVG/1.1/DTD/svg11.dtd">
<svg version="1.1" id="party_chrome" xmlns="http://www.w3.org/2000/svg" xmlns:xlink="http://www.w3.org/1999/xlink" x="0px"
	 y="0px" width="56px" height="644px" viewBox="0 0 56 644" style="enable-background:new 0 0 56 644;" xml:space="preserve">
<style type="text/css">
	.st0{fill:none;stroke:#B8B8B8;stroke-width:2;stroke-linecap:round;stroke-linejoin:round;stroke-miterlimit:10;}
	.st1{fill:none;stroke:#B8B8B8;stroke-width:2;stroke-miterlimit:10;}
	.st2{fill:none;stroke:#FFFFFF;stroke-width:2;stroke-linecap:round;stroke-linejoin:round;stroke-miterlimit:10;}
	.st3{fill:#FFFFFF;}
	.st4{fill:#B8B8B8;}
	.st5{fill:#00A2FF;}
	.st6{fill:none;stroke:#00A2FF;stroke-width:2;stroke-linecap:round;stroke-linejoin:round;stroke-miterlimit:10;}
	.st7{fill:none;stroke:#00A2FF;stroke-width:2;stroke-miterlimit:10;}
	.st8{fill:#191919;}
	.st9{fill:none;stroke:#191919;stroke-width:2;stroke-linecap:round;stroke-linejoin:round;stroke-miterlimit:10;}
	.st10{fill:#D86868;}
	.st11{fill:#757575;}
	.st12{fill:#00B259;}
</style>
<g id="chat-gray">
	<polygon class="st0" points="25,620 3,620 3,634 11,634 11,640 16.1,634 25,634 	"/>
	<circle class="st1" cx="8" cy="627" r="1"/>
	<circle class="st1" cx="14" cy="627" r="1"/>
	<circle class="st1" cx="20" cy="627" r="1"/>
</g>
<g id="group-on">
	<g>
		<path class="st2" d="M36,574c-1.7,0-3-1.3-3-3c0-1.3,0.8-2.4,2-2.8"/>
		<path class="st2" d="M36,574c-0.7,0.1-3.4,1.6-3.7,1.9c-0.7,0.7-1.3,4.1-1.3,4.1s0.9,0.8,2,1"/>
		<path class="st2" d="M48,574c1.7,0,3-1.3,3-3c0-1.3-0.8-2.4-2-2.8"/>
		<path class="st2" d="M48,574c0.7,0.1,3.4,1.6,3.7,1.9c0.7,0.7,1.3,4.1,1.3,4.1s-0.9,0.8-2,1"/>
	</g>
	<circle class="st3" cx="42" cy="569" r="5"/>
	<path class="st3" d="M42,576L42,576c0.6,0,5.3,0.3,6,1c0.6,0.6,0.9,4,1,5.4c0,0.4-0.2,0.8-0.5,0.9c-1.1,0.6-3.6,1.7-6.4,1.7
		s-5.4-1.1-6.4-1.7c-0.3-0.2-0.6-0.5-0.5-0.9c0.1-1.4,0.4-4.8,1-5.4C36.7,576.3,41.4,576,42,576z"/>
</g>
<g id="group">
	<circle class="st2" cx="14" cy="569" r="4"/>
	<path class="st2" d="M14,576c0,0,4.2,0.2,5,1s1,5,1,5s-2.2,2-6,2s-6-2-6-2s0.2-4.2,1-5S14,576,14,576z"/>
	<g>
		<path class="st2" d="M8,574c-1.7,0-3-1.3-3-3c0-1.3,0.8-2.4,2-2.8"/>
		<path class="st2" d="M8,574c-0.7,0.1-3.4,1.6-3.7,1.9C3.7,576.6,3,580,3,580s0.9,0.8,2,1"/>
		<path class="st2" d="M20,574c1.7,0,3-1.3,3-3c0-1.3-0.8-2.4-2-2.8"/>
		<path class="st2" d="M20,574c0.7,0.1,3.4,1.6,3.7,1.9c0.7,0.7,1.3,4.1,1.3,4.1s-0.9,0.8-2,1"/>
	</g>
</g>
<g id="friends-on">
	<path class="st0" d="M46,536.1c2.3,0.5,4,2.5,4,4.9c0,2.1-1.2,3.8-3,4.6"/>
	<path class="st0" d="M47,545.6c1.3,0.1,3.5,2,4,2.4c1,1,2,6,2,6s-1.1,1.4-3,2"/>
	<circle class="st4" cx="39" cy="540" r="6"/>
	<path class="st4" d="M39,548c0,0,6,0,7,1c0.8,0.8,1.6,4.6,1.9,6.2c0.1,0.5-0.2,0.9-0.6,1.1c-1.4,0.6-4.6,1.7-8.3,1.7
		s-6.9-1.1-8.3-1.7c-0.4-0.2-0.7-0.6-0.6-1.1c0.3-1.7,1.1-5.4,1.9-6.2C33,548,39,548,39,548z"/>
</g>
<g id="friends">
	<circle class="st0" cx="11" cy="540" r="5"/>
	<path class="st0" d="M18,536.1c2.3,0.5,4,2.5,4,4.9c0,2.1-1.2,3.8-3,4.6"/>
	<path class="st0" d="M11,548c0,0,5,0,6,1s2,6,2,6s-3.1,2-8,2s-8-2-8-2s1-5,2-6S11,548,11,548z"/>
	<path class="st0" d="M19,545.6c1.3,0.1,3.5,2,4,2.4c1,1,2,6,2,6s-1.1,1.4-3,2"/>
</g>
<g id="chat-on">
	<path class="st5" d="M53,507H31c-0.6,0-1,0.4-1,1v14c0,0.6,0.4,1,1,1h7v5c0,0.4,0.3,0.8,0.7,0.9c0.1,0,0.2,0.1,0.3,0.1
		c0.3,0,0.6-0.1,0.8-0.4l4.8-5.6H53c0.6,0,1-0.4,1-1v-14C54,507.4,53.6,507,53,507z M36,517c-1.1,0-2-0.9-2-2s0.9-2,2-2s2,0.9,2,2
		S37.1,517,36,517z M42,517c-1.1,0-2-0.9-2-2s0.9-2,2-2s2,0.9,2,2S43.1,517,42,517z M48,517c-1.1,0-2-0.9-2-2s0.9-2,2-2s2,0.9,2,2
		S49.1,517,48,517z"/>
</g>
<g id="chat">
	<polygon class="st6" points="25,508 3,508 3,522 11,522 11,528 16.1,522 25,522 	"/>
	<circle class="st7" cx="8" cy="515" r="1"/>
	<circle class="st7" cx="14" cy="515" r="1"/>
	<circle class="st7" cx="20" cy="515" r="1"/>
</g>
<g id="create_party_plus-on">
	<path id="XMLID_109_" class="st8" d="M47,493v-2c0-0.6,0.4-1,1-1h2c0.6,0,1-0.4,1-1v-5.1c0-0.3-0.2-0.6-0.4-0.8l-4-2.9
		c-0.2-0.1-0.4-0.2-0.6-0.2H35c-0.2,0-0.4,0.1-0.6,0.2l-4,2.9c-0.3,0.2-0.4,0.5-0.4,0.8V494c0,0.6,0.4,1,1,1h5
		c0.2,0,0.4-0.1,0.6-0.2l2.7-1.8h3.5l1.8,0.9c0.1,0.1,0.3,0.1,0.4,0.1h1C46.6,494,47,493.6,47,493z M39,488h-1v1c0,0.6-0.4,1-1,1
		s-1-0.4-1-1v-1h-1c-0.6,0-1-0.4-1-1s0.4-1,1-1h1v-1c0-0.6,0.4-1,1-1s1,0.4,1,1v1h1c0.6,0,1,0.4,1,1S39.6,488,39,488z M43,487
		c-0.8,0-1.5-0.7-1.5-1.5s0.7-1.5,1.5-1.5s1.5,0.7,1.5,1.5S43.8,487,43,487z"/>
	<path id="XMLID_97_" class="st8" d="M53,495h-2v-2c0-0.6-0.4-1-1-1s-1,0.4-1,1v2h-2c-0.6,0-1,0.4-1,1s0.4,1,1,1h2v2
		c0,0.6,0.4,1,1,1s1-0.4,1-1v-2h2c0.6,0,1-0.4,1-1S53.6,495,53,495z"/>
</g>
<g id="create_party_plus">
	<polyline id="XMLID_140_" class="st9" points="22,490 22,483.9 18,481 7,481 3,483.9 3,494 8,494 11,492 15,492 17,493 	"/>
	<line id="XMLID_139_" class="st9" x1="7" y1="487" x2="11" y2="487"/>
	<line id="XMLID_138_" class="st9" x1="9" y1="485" x2="9" y2="489"/>
	<g id="XMLID_135_">
		<path id="XMLID_143_" class="st8" d="M15,484c-0.8,0-1.5,0.7-1.5,1.5s0.7,1.5,1.5,1.5s1.5-0.7,1.5-1.5S15.8,484,15,484L15,484z"/>
	</g>
	<g id="XMLID_132_">
		<path id="XMLID_144_" class="st8" d="M18,487c-0.8,0-1.5,0.7-1.5,1.5s0.7,1.5,1.5,1.5s1.5-0.7,1.5-1.5S18.8,487,18,487L18,487z"/>
	</g>
	<g id="XMLID_129_">
		<line id="XMLID_131_" class="st9" x1="19" y1="496" x2="25" y2="496"/>
		<line id="XMLID_130_" class="st9" x1="22" y1="493" x2="22" y2="499"/>
	</g>
</g>
<g id="create_party-on">
	<g id="XMLID_113_">
		<path id="XMLID_120_" class="st3" d="M42,451c-2.8,0-5,2.2-5,5s2.2,5,5,5s5-2.2,5-5S44.8,451,42,451z"/>
		<path id="XMLID_119_" class="st3" d="M48.4,464.8c-0.2-0.7-0.4-1.2-0.7-1.5c-0.9-0.9-3.9-1.2-5.7-1.3h-0.1
			c-1.7,0.1-4.7,0.4-5.7,1.3c-0.9,0.9-1.2,3.9-1.3,5.7c0,0.3,0.1,0.6,0.3,0.8c0.1,0.1,2.5,2.3,6.7,2.3c0.7,0,1.5-0.1,2.2-0.2
			c0.5-0.1,0.8-0.5,0.8-1v-3.3c0-0.4,0.3-0.8,0.7-1l2-0.6C48.3,465.8,48.6,465.3,48.4,464.8z"/>
		<g id="XMLID_114_">
			<path id="XMLID_118_" class="st2" d="M36,461c-1.7,0-3-1.3-3-3c0-1.3,0.8-2.4,2-2.8"/>
			<path id="XMLID_117_" class="st2" d="M36,461c-0.7,0.1-3.4,1.6-3.7,1.9c-0.7,0.7-1.3,4.1-1.3,4.1s0.9,0.8,2,1"/>
			<path id="XMLID_116_" class="st2" d="M48,461c1.7,0,3-1.3,3-3c0-1.3-0.8-2.4-2-2.8"/>
			<path id="XMLID_115_" class="st2" d="M48,461c0.7,0.1,3.4,1.6,3.7,1.9"/>
		</g>
	</g>
	<g id="XMLID_110_">
		<line id="XMLID_112_" class="st2" x1="47" y1="469" x2="53" y2="469"/>
		<line id="XMLID_111_" class="st2" x1="50" y1="466" x2="50" y2="472"/>
	</g>
</g>
<g id="create_party">
	<g id="XMLID_101_">
		<circle id="XMLID_108_" class="st2" cx="14" cy="456" r="4"/>
		<path id="XMLID_107_" class="st2" d="M16,470.8c-0.6,0.1-1.3,0.2-2,0.2c-3.8,0-6-2-6-2s0.2-4.2,1-5s5-1,5-1s4.2,0.2,5,1
			c0.2,0.2,0.3,0.5,0.5,1"/>
		<g id="XMLID_102_">
			<path id="XMLID_106_" class="st2" d="M8,461c-1.7,0-3-1.3-3-3c0-1.3,0.8-2.4,2-2.8"/>
			<path id="XMLID_105_" class="st2" d="M8,461c-0.7,0.1-3.4,1.6-3.7,1.9C3.7,463.6,3,467,3,467s0.9,0.8,2,1"/>
			<path id="XMLID_104_" class="st2" d="M20,461c1.7,0,3-1.3,3-3c0-1.3-0.8-2.4-2-2.8"/>
			<path id="XMLID_103_" class="st2" d="M20,461c0.7,0.1,3.4,1.6,3.7,1.9"/>
		</g>
	</g>
	<g id="XMLID_98_">
		<line id="XMLID_100_" class="st2" x1="19" y1="469" x2="25" y2="469"/>
		<line id="XMLID_99_" class="st2" x1="22" y1="466" x2="22" y2="472"/>
	</g>
</g>
<path id="remove-on_1_" class="st10" d="M53,434c0,6.1-4.9,11-11,11s-11-4.9-11-11s4.9-11,11-11S53,427.9,53,434z M48,434
	c0-0.6-0.4-1-1-1H37c-0.6,0-1,0.4-1,1s0.4,1,1,1h10C47.6,435,48,434.6,48,434z"/>
<g id="remove_1_">
	<path id="XMLID_78_" class="st11" d="M14,423c-6.1,0-11,4.9-11,11s4.9,11,11,11s11-4.9,11-11S20.1,423,14,423z M14,443
		c-5,0-9-4-9-9s4-9,9-9s9,4,9,9S19,443,14,443z"/>
	<path id="XMLID_77_" class="st11" d="M19,433H9c-0.6,0-1,0.4-1,1s0.4,1,1,1h10c0.6,0,1-0.4,1-1S19.6,433,19,433z"/>
</g>
<path id="report-on_2_" class="st10" d="M48,401l2-6H34c-0.6,0-1,0.4-1,1v20c0,0.6,0.4,1,1,1s1-0.4,1-1v-9h15L48,401z"/>
<path id="report_1_" class="st11" d="M21.1,401l1.9-4.6c0.1-0.3,0.1-0.7-0.1-0.9c-0.2-0.3-0.5-0.4-0.8-0.4H6c-0.6,0-1,0.4-1,1v20
	c0,0.6,0.4,1,1,1s1-0.4,1-1v-9h15c0.3,0,0.6-0.2,0.8-0.4c0.2-0.3,0.2-0.6,0.1-0.9L21.1,401z M19.1,401.4l1.5,3.6H7v-8h13.5l-1.5,3.6
	C19,400.9,19,401.1,19.1,401.4z"/>
<path id="report-w-on" class="st3" d="M48,373l2-6H34c-0.6,0-1,0.4-1,1v20c0,0.6,0.4,1,1,1s1-0.4,1-1v-9h15L48,373z"/>
<path id="report-w" class="st3" d="M21.1,373l1.9-4.6c0.1-0.3,0.1-0.7-0.1-0.9c-0.2-0.3-0.5-0.4-0.8-0.4H6c-0.6,0-1,0.4-1,1v20
	c0,0.6,0.4,1,1,1s1-0.4,1-1v-9h15c0.3,0,0.6-0.2,0.8-0.4c0.2-0.3,0.2-0.6,0.1-0.9L21.1,373z M19.1,373.4l1.5,3.6H7v-8h13.5l-1.5,3.6
	C19,372.9,19,373.1,19.1,373.4z"/>
<path id="right-on_3_" class="st8" d="M49.2,349.3l-8-8c-0.4-0.4-1-0.4-1.4,0s-0.4,1,0,1.4l6.3,6.3H35c-0.6,0-1,0.4-1,1s0.4,1,1,1
	h11.1l-6.3,6.3c-0.4,0.4-0.4,1,0,1.4c0.2,0.2,0.5,0.3,0.7,0.3s0.5-0.1,0.7-0.3l8-8C49.6,350.3,49.6,349.7,49.2,349.3z"/>
<path id="right_5_" class="st11" d="M21.2,349.3l-8-8c-0.4-0.4-1-0.4-1.4,0s-0.4,1,0,1.4l6.3,6.3H7c-0.6,0-1,0.4-1,1s0.4,1,1,1h11.1
	l-6.3,6.3c-0.4,0.4-0.4,1,0,1.4c0.2,0.2,0.5,0.3,0.7,0.3s0.5-0.1,0.7-0.3l8-8C21.6,350.3,21.6,349.7,21.2,349.3z"/>
<g id="emoji-on">
	<path id="XMLID_70_" class="st8" d="M42,310c-6.6,0-12,5.4-12,12s5.4,12,12,12s12-5.4,12-12S48.6,310,42,310z M42,332
		c-5.5,0-10-4.5-10-10s4.5-10,10-10s10,4.5,10,10S47.5,332,42,332z"/>
	<path id="XMLID_69_" class="st8" d="M48.5,322.8c-0.5-0.3-1.1-0.1-1.4,0.3c-1.1,1.8-3,2.9-5.1,2.9s-4-1.1-5.1-2.9
		c-0.3-0.5-0.9-0.6-1.4-0.3c-0.5,0.3-0.6,0.9-0.3,1.4c1.5,2.4,4,3.9,6.9,3.9c2.8,0,5.4-1.4,6.9-3.9C49.1,323.7,49,323,48.5,322.8z"
		/>
	<circle id="XMLID_68_" class="st8" cx="38" cy="318" r="2"/>
	<circle id="XMLID_67_" class="st8" cx="46" cy="318" r="2"/>
</g>
<g id="emoji">
	<path id="XMLID_64_" class="st11" d="M14,310c-6.6,0-12,5.4-12,12s5.4,12,12,12s12-5.4,12-12S20.6,310,14,310z M14,332
		c-5.5,0-10-4.5-10-10s4.5-10,10-10s10,4.5,10,10S19.5,332,14,332z"/>
	<path id="XMLID_63_" class="st11" d="M20.5,322.8c-0.5-0.3-1.1-0.1-1.4,0.3c-1.1,1.8-3,2.9-5.1,2.9s-4-1.1-5.1-2.9
		c-0.3-0.5-0.9-0.6-1.4-0.3c-0.5,0.3-0.6,0.9-0.3,1.4c1.5,2.4,4,3.9,6.9,3.9c2.8,0,5.4-1.4,6.9-3.9C21.1,323.7,21,323,20.5,322.8z"
		/>
	<circle id="XMLID_62_" class="st11" cx="10" cy="318" r="2"/>
	<circle id="XMLID_61_" class="st11" cx="18" cy="318" r="2"/>
</g>
<g id="search-on">
	<path id="XMLID_58_" class="st5" d="M52.7,303.3l-5.7-5.7c1.2-1.5,2-3.5,2-5.6c0-5-4-9-9-9s-9,4-9,9s4,9,9,9c2.1,0,4.1-0.7,5.6-2
		l5.7,5.7c0.2,0.2,0.5,0.3,0.7,0.3s0.5-0.1,0.7-0.3C53.1,304.3,53.1,303.7,52.7,303.3z M40,299c-3.9,0-7-3.1-7-7s3.1-7,7-7
		s7,3.1,7,7S43.9,299,40,299z"/>
	<path id="XMLID_57_" class="st5" d="M40,287c-0.6,0-1,0.4-1,1s0.4,1,1,1c1.7,0,3,1.3,3,3c0,0.6,0.4,1,1,1s1-0.4,1-1
		C45,289.2,42.8,287,40,287z"/>
</g>
<g id="search_6_">
	<path id="XMLID_54_" class="st8" d="M24.7,303.3l-5.7-5.7c1.2-1.5,2-3.5,2-5.6c0-5-4-9-9-9s-9,4-9,9s4,9,9,9c2.1,0,4.1-0.7,5.6-2
		l5.7,5.7c0.2,0.2,0.5,0.3,0.7,0.3s0.5-0.1,0.7-0.3C25.1,304.3,25.1,303.7,24.7,303.3z M12,299c-3.9,0-7-3.1-7-7s3.1-7,7-7
		s7,3.1,7,7S15.9,299,12,299z"/>
	<path id="XMLID_53_" class="st8" d="M12,287c-0.6,0-1,0.4-1,1s0.4,1,1,1c1.7,0,3,1.3,3,3c0,0.6,0.4,1,1,1s1-0.4,1-1
		C17,289.2,14.8,287,12,287z"/>
</g>
<g id="checkmark-on_1_">
	<path id="XMLID_52_" class="st12" d="M39,273c-0.3,0-0.5-0.1-0.7-0.3l-6-6c-0.4-0.4-0.4-1,0-1.4c0.4-0.4,1-0.4,1.4,0l5.3,5.3
		l11.3-11.3c0.4-0.4,1-0.4,1.4,0s0.4,1,0,1.4l-12,12C39.5,272.9,39.3,273,39,273z"/>
</g>
<g id="checkmark_1_">
	<path id="XMLID_51_" class="st8" d="M11,273c-0.3,0-0.5-0.1-0.7-0.3l-6-6c-0.4-0.4-0.4-1,0-1.4s1-0.4,1.4,0l5.3,5.3l11.3-11.3
		c0.4-0.4,1-0.4,1.4,0s0.4,1,0,1.4l-12,12C11.5,272.9,11.3,273,11,273z"/>
</g>
<path id="close-on_2_" class="st8" d="M43.4,238l6.3-6.3c0.4-0.4,0.4-1,0-1.4s-1-0.4-1.4,0l-6.3,6.3l-6.3-6.3c-0.4-0.4-1-0.4-1.4,0
	s-0.4,1,0,1.4l6.3,6.3l-6.3,6.3c-0.4,0.4-0.4,1,0,1.4c0.2,0.2,0.5,0.3,0.7,0.3s0.5-0.1,0.7-0.3l6.3-6.3l6.3,6.3
	c0.2,0.2,0.5,0.3,0.7,0.3s0.5-0.1,0.7-0.3c0.4-0.4,0.4-1,0-1.4L43.4,238z"/>
<path id="close-g" class="st11" d="M15.4,238l6.3-6.3c0.4-0.4,0.4-1,0-1.4s-1-0.4-1.4,0l-6.3,6.3l-6.3-6.3c-0.4-0.4-1-0.4-1.4,0
	s-0.4,1,0,1.4l6.3,6.3l-6.3,6.3c-0.4,0.4-0.4,1,0,1.4c0.2,0.2,0.5,0.3,0.7,0.3s0.5-0.1,0.7-0.3l6.3-6.3l6.3,6.3
	c0.2,0.2,0.5,0.3,0.7,0.3s0.5-0.1,0.7-0.3c0.4-0.4,0.4-1,0-1.4L15.4,238z"/>
<path id="close-r-on" class="st10" d="M43.4,210l6.3-6.3c0.4-0.4,0.4-1,0-1.4s-1-0.4-1.4,0l-6.3,6.3l-6.3-6.3c-0.4-0.4-1-0.4-1.4,0
	s-0.4,1,0,1.4l6.3,6.3l-6.3,6.3c-0.4,0.4-0.4,1,0,1.4c0.2,0.2,0.5,0.3,0.7,0.3s0.5-0.1,0.7-0.3l6.3-6.3l6.3,6.3
	c0.2,0.2,0.5,0.3,0.7,0.3s0.5-0.1,0.7-0.3c0.4-0.4,0.4-1,0-1.4L43.4,210z"/>
<path id="close_2_" class="st8" d="M15.4,210l6.3-6.3c0.4-0.4,0.4-1,0-1.4s-1-0.4-1.4,0l-6.3,6.3l-6.3-6.3c-0.4-0.4-1-0.4-1.4,0
	s-0.4,1,0,1.4l6.3,6.3l-6.3,6.3c-0.4,0.4-0.4,1,0,1.4c0.2,0.2,0.5,0.3,0.7,0.3s0.5-0.1,0.7-0.3l6.3-6.3l6.3,6.3
	c0.2,0.2,0.5,0.3,0.7,0.3s0.5-0.1,0.7-0.3c0.4-0.4,0.4-1,0-1.4L15.4,210z"/>
<path id="close-w-on" class="st3" d="M43.4,182l6.3-6.3c0.4-0.4,0.4-1,0-1.4s-1-0.4-1.4,0l-6.3,6.3l-6.3-6.3c-0.4-0.4-1-0.4-1.4,0
	s-0.4,1,0,1.4l6.3,6.3l-6.3,6.3c-0.4,0.4-0.4,1,0,1.4c0.2,0.2,0.5,0.3,0.7,0.3s0.5-0.1,0.7-0.3l6.3-6.3l6.3,6.3
	c0.2,0.2,0.5,0.3,0.7,0.3s0.5-0.1,0.7-0.3c0.4-0.4,0.4-1,0-1.4L43.4,182z"/>
<path id="close-w" class="st3" d="M15.4,182l6.3-6.3c0.4-0.4,0.4-1,0-1.4s-1-0.4-1.4,0l-6.3,6.3l-6.3-6.3c-0.4-0.4-1-0.4-1.4,0
	s-0.4,1,0,1.4l6.3,6.3l-6.3,6.3c-0.4,0.4-0.4,1,0,1.4c0.2,0.2,0.5,0.3,0.7,0.3s0.5-0.1,0.7-0.3l6.3-6.3l6.3,6.3
	c0.2,0.2,0.5,0.3,0.7,0.3s0.5-0.1,0.7-0.3c0.4-0.4,0.4-1,0-1.4L15.4,182z"/>
<g id="right-on_2_">
	<path id="XMLID_50_" class="st3" d="M46,163c-0.3,0-0.5-0.1-0.7-0.3l-8-8c-0.4-0.4-0.4-1,0-1.4l8-8c0.4-0.4,1-0.4,1.4,0
		s0.4,1,0,1.4l-7.3,7.3l7.3,7.3c0.4,0.4,0.4,1,0,1.4C46.5,162.9,46.3,163,46,163z"/>
</g>
<g id="right_4_">
	<path id="XMLID_49_" class="st3" d="M18,163c-0.3,0-0.5-0.1-0.7-0.3l-8-8c-0.4-0.4-0.4-1,0-1.4l8-8c0.4-0.4,1-0.4,1.4,0
		s0.4,1,0,1.4l-7.3,7.3l7.3,7.3c0.4,0.4,0.4,1,0,1.4C18.5,162.9,18.3,163,18,163z"/>
</g>
<g id="party-on">
	<path id="XMLID_44_" class="st8" d="M34.6,130.8l2.7-1.8h5.4l2.7,1.8c0.2,0.1,0.4,0.2,0.6,0.2h3c0.6,0,1-0.4,1-1v-10.1
		c0-0.3-0.2-0.6-0.4-0.8l-4-2.9c-0.2-0.1-0.4-0.2-0.6-0.2H35c-0.2,0-0.4,0.1-0.6,0.2l-4,2.9c-0.3,0.2-0.4,0.5-0.4,0.8V130
		c0,0.6,0.4,1,1,1h3C34.2,131,34.4,130.9,34.6,130.8z M45,123c0.8,0,1.5,0.7,1.5,1.5S45.8,126,45,126s-1.5-0.7-1.5-1.5
		S44.2,123,45,123z M42,120c0.8,0,1.5,0.7,1.5,1.5S42.8,123,42,123s-1.5-0.7-1.5-1.5S41.2,120,42,120z M33,123c0-0.6,0.4-1,1-1h1v-1
		c0-0.6,0.4-1,1-1s1,0.4,1,1v1h1c0.6,0,1,0.4,1,1s-0.4,1-1,1h-1v1c0,0.6-0.4,1-1,1s-1-0.4-1-1v-1h-1C33.4,124,33,123.6,33,123z"/>
	<path id="XMLID_43_" class="st8" d="M53.7,124.2l-1-0.9c-0.4-0.4-1-0.3-1.4,0.1s-0.3,1,0.1,1.4l0.7,0.6v8.6h-1.7l-2.7-1.8
		c-0.2-0.1-0.4-0.2-0.6-0.2h-6c-0.2,0-0.4,0.1-0.6,0.2l-2.7,1.8H36v-1c0-0.6-0.4-1-1-1s-1,0.4-1,1v2c0,0.6,0.4,1,1,1h3
		c0.2,0,0.4-0.1,0.6-0.2l2.7-1.8h5.4l2.7,1.8c0.2,0.1,0.4,0.2,0.6,0.2h3c0.6,0,1-0.4,1-1v-10.1C54,124.6,53.9,124.4,53.7,124.2z"/>
</g>
<g id="party_1_">
	<path id="XMLID_40_" class="st8" d="M6.6,130.8l2.7-1.8h5.4l2.7,1.8c0.2,0.1,0.4,0.2,0.6,0.2h3c0.6,0,1-0.4,1-1v-10.1
		c0-0.3-0.2-0.6-0.4-0.8l-4-2.9c-0.2-0.1-0.4-0.2-0.6-0.2H7c-0.2,0-0.4,0.1-0.6,0.2l-4,2.9c-0.3,0.2-0.4,0.5-0.4,0.8V130
		c0,0.6,0.4,1,1,1h3C6.2,131,6.4,130.9,6.6,130.8z M4,129v-8.6l3.3-2.4h9.3l3.3,2.4v8.6h-1.7l-2.7-1.8c-0.2-0.1-0.4-0.2-0.6-0.2H9
		c-0.2,0-0.4,0.1-0.6,0.2L5.7,129H4z"/>
	<path id="XMLID_39_" class="st8" d="M9,125v-1h1c0.6,0,1-0.4,1-1s-0.4-1-1-1H9v-1c0-0.6-0.4-1-1-1s-1,0.4-1,1v1H6c-0.6,0-1,0.4-1,1
		s0.4,1,1,1h1v1c0,0.6,0.4,1,1,1S9,125.6,9,125z"/>
	<circle id="XMLID_38_" class="st8" cx="14" cy="121.5" r="1.5"/>
	<circle id="XMLID_37_" class="st8" cx="17" cy="124.5" r="1.5"/>
	<path id="XMLID_36_" class="st8" d="M25.7,124.2l-1-0.9c-0.4-0.4-1-0.3-1.4,0.1s-0.3,1,0.1,1.4l0.7,0.6v8.6h-1.7l-2.7-1.8
		c-0.2-0.1-0.4-0.2-0.6-0.2h-6c-0.2,0-0.4,0.1-0.6,0.2L9.7,134H8v-1c0-0.6-0.4-1-1-1s-1,0.4-1,1v2c0,0.6,0.4,1,1,1h3
		c0.2,0,0.4-0.1,0.6-0.2l2.7-1.8h5.4l2.7,1.8c0.2,0.1,0.4,0.2,0.6,0.2h3c0.6,0,1-0.4,1-1v-10.1C26,124.6,25.9,124.4,25.7,124.2z"/>
</g>
<g id="party-w-on">
	<path id="XMLID_31_" class="st3" d="M34.6,102.8l2.7-1.8h5.4l2.7,1.8c0.2,0.1,0.4,0.2,0.6,0.2h3c0.6,0,1-0.4,1-1V91.9
		c0-0.3-0.2-0.6-0.4-0.8l-4-2.9C45.4,88.1,45.2,88,45,88H35c-0.2,0-0.4,0.1-0.6,0.2l-4,2.9c-0.3,0.2-0.4,0.5-0.4,0.8V102
		c0,0.6,0.4,1,1,1h3C34.2,103,34.4,102.9,34.6,102.8z M45,95c0.8,0,1.5,0.7,1.5,1.5S45.8,98,45,98s-1.5-0.7-1.5-1.5S44.2,95,45,95z
		 M42,92c0.8,0,1.5,0.7,1.5,1.5S42.8,95,42,95s-1.5-0.7-1.5-1.5S41.2,92,42,92z M33,95c0-0.6,0.4-1,1-1h1v-1c0-0.6,0.4-1,1-1
		s1,0.4,1,1v1h1c0.6,0,1,0.4,1,1s-0.4,1-1,1h-1v1c0,0.6-0.4,1-1,1s-1-0.4-1-1v-1h-1C33.4,96,33,95.6,33,95z"/>
	<path id="XMLID_30_" class="st3" d="M53.7,96.2l-1-0.9c-0.4-0.4-1-0.3-1.4,0.1s-0.3,1,0.1,1.4l0.7,0.6v8.6h-1.7l-2.7-1.8
		c-0.2-0.1-0.4-0.2-0.6-0.2h-6c-0.2,0-0.4,0.1-0.6,0.2l-2.7,1.8H36v-1c0-0.6-0.4-1-1-1s-1,0.4-1,1v2c0,0.6,0.4,1,1,1h3
		c0.2,0,0.4-0.1,0.6-0.2l2.7-1.8h5.4l2.7,1.8c0.2,0.1,0.4,0.2,0.6,0.2h3c0.6,0,1-0.4,1-1V96.9C54,96.6,53.9,96.4,53.7,96.2z"/>
</g>
<g id="party-w_1_">
	<path id="XMLID_27_" class="st3" d="M6.6,102.8l2.7-1.8h5.4l2.7,1.8c0.2,0.1,0.4,0.2,0.6,0.2h3c0.6,0,1-0.4,1-1V91.9
		c0-0.3-0.2-0.6-0.4-0.8l-4-2.9C17.4,88.1,17.2,88,17,88H7c-0.2,0-0.4,0.1-0.6,0.2l-4,2.9C2.2,91.3,2,91.6,2,91.9V102
		c0,0.6,0.4,1,1,1h3C6.2,103,6.4,102.9,6.6,102.8z M4,101v-8.6L7.3,90h9.3l3.3,2.4v8.6h-1.7l-2.7-1.8C15.4,99.1,15.2,99,15,99H9
		c-0.2,0-0.4,0.1-0.6,0.2L5.7,101H4z"/>
	<path id="XMLID_26_" class="st3" d="M9,97v-1h1c0.6,0,1-0.4,1-1s-0.4-1-1-1H9v-1c0-0.6-0.4-1-1-1s-1,0.4-1,1v1H6c-0.6,0-1,0.4-1,1
		s0.4,1,1,1h1v1c0,0.6,0.4,1,1,1S9,97.6,9,97z"/>
	<circle id="XMLID_25_" class="st3" cx="14" cy="93.5" r="1.5"/>
	<circle id="XMLID_24_" class="st3" cx="17" cy="96.5" r="1.5"/>
	<path id="XMLID_23_" class="st3" d="M25.7,96.2l-1-0.9c-0.4-0.4-1-0.3-1.4,0.1s-0.3,1,0.1,1.4l0.7,0.6v8.6h-1.7l-2.7-1.8
		c-0.2-0.1-0.4-0.2-0.6-0.2h-6c-0.2,0-0.4,0.1-0.6,0.2L9.7,106H8v-1c0-0.6-0.4-1-1-1s-1,0.4-1,1v2c0,0.6,0.4,1,1,1h3
		c0.2,0,0.4-0.1,0.6-0.2l2.7-1.8h5.4l2.7,1.8c0.2,0.1,0.4,0.2,0.6,0.2h3c0.6,0,1-0.4,1-1V96.9C26,96.6,25.9,96.4,25.7,96.2z"/>
</g>
<g id="leave-on">
	<path id="XMLID_22_" class="st3" d="M43,72h-8v-4h8c0.6,0,1-0.4,1-1v-6c0-0.6-0.4-1-1-1H31c-0.6,0-1,0.4-1,1v18c0,0.6,0.4,1,1,1h12
		c0.6,0,1-0.4,1-1v-6C44,72.4,43.6,72,43,72z"/>
	<path id="XMLID_21_" class="st3" d="M54,70L54,70c0-0.2,0-0.3,0-0.3v-0.1c0-0.1-0.1-0.2-0.2-0.3l-5-5c-0.4-0.4-1-0.4-1.4,0
		s-0.4,1,0,1.4l3.3,3.3H37c-0.6,0-1,0.4-1,1s0.4,1,1,1h13.6l-3.3,3.3c-0.4,0.4-0.4,1,0,1.4c0.2,0.2,0.5,0.3,0.7,0.3s0.5-0.1,0.7-0.3
		l5-5c0,0,0,0,0.1,0c0.1-0.1,0.2-0.2,0.2-0.3l0,0l0,0C54,70.2,54,70.1,54,70z"/>
</g>
<g id="leave">
	<path id="XMLID_20_" class="st3" d="M15,74c-0.6,0-1,0.4-1,1v3H4V62h10v3c0,0.6,0.4,1,1,1s1-0.4,1-1v-4c0-0.6-0.4-1-1-1H3
		c-0.6,0-1,0.4-1,1v18c0,0.6,0.4,1,1,1h12c0.6,0,1-0.4,1-1v-4C16,74.4,15.6,74,15,74z"/>
	<path id="XMLID_19_" class="st3" d="M26,70L26,70c0-0.2,0-0.3,0-0.3v-0.1c0-0.1-0.1-0.2-0.2-0.3l-5-5c-0.4-0.4-1-0.4-1.4,0
		s-0.4,1,0,1.4l3.3,3.3H9c-0.6,0-1,0.4-1,1s0.4,1,1,1h13.6l-3.3,3.3c-0.4,0.4-0.4,1,0,1.4c0.2,0.2,0.5,0.3,0.7,0.3s0.5-0.1,0.7-0.3
		l5-5c0,0,0,0,0.1,0c0.1-0.1,0.2-0.2,0.2-0.3l0,0l0,0C26,70.2,26,70.1,26,70z"/>
</g>
<g id="add_friends-on">
	<circle id="XMLID_18_" class="st3" cx="42" cy="36" r="6"/>
	<path id="XMLID_17_" class="st3" d="M46,51h-2c-0.6,0-1-0.4-1-1v-2c0-0.6,0.4-1,1-1h2c0.6,0,1-0.4,1-1v-1c-1.6-1-5-1-5-1s-6,0-7,1
		s-2,7-2,7s4.1,2,9,2c1.1,0,3.1,0,5-1v-1C47,51.4,46.6,51,46,51z"/>
	<path id="XMLID_16_" class="st3" d="M53,48h-3v-3c0-0.6-0.4-1-1-1s-1,0.4-1,1v3h-3c-0.6,0-1,0.4-1,1s0.4,1,1,1h3v3c0,0.6,0.4,1,1,1
		s1-0.4,1-1v-3h3c0.6,0,1-0.4,1-1S53.6,48,53,48z"/>
</g>
<g id="add_friends">
	<path id="XMLID_13_" class="st3" d="M14,42c3.3,0,6-2.7,6-6s-2.7-6-6-6s-6,2.7-6,6S10.7,42,14,42z M14,32c2.2,0,4,1.8,4,4
		s-1.8,4-4,4s-4-1.8-4-4S11.8,32,14,32z"/>
	<path id="XMLID_12_" class="st3" d="M16.8,51.8C15.9,51.9,15,52,14,52c-3.4,0-5.8-1-6.9-1.5c0.5-2.1,1.1-4.3,1.6-4.8
		C9.1,45.3,11.6,45,14,45l0,0c0,0,1.4,0,2.9,0.2c0.6,0.1,1-0.3,1.1-0.9c0.1-0.5-0.3-1-0.9-1.1C15.6,43,14.2,43,14,43
		c-0.1,0,0,0-0.1,0c-1.7,0-5.5,0.1-6.7,1.3c-1.1,1.1-2,5.3-2.3,6.5c-0.1,0.4,0.1,0.8,0.4,1C5.6,51.9,8.8,54,14,54
		c1.1,0,2.1-0.1,3.2-0.3c0.5-0.1,0.9-0.6,0.8-1.2C17.9,52,17.4,51.7,16.8,51.8z"/>
	<path id="XMLID_11_" class="st3" d="M25,48h-3v-3c0-0.6-0.4-1-1-1s-1,0.4-1,1v3h-3c-0.6,0-1,0.4-1,1s0.4,1,1,1h3v3c0,0.6,0.4,1,1,1
		s1-0.4,1-1v-3h3c0.6,0,1-0.4,1-1S25.6,48,25,48z"/>
</g>
<g id="setting-on">
	<path id="XMLID_8_" class="st3" d="M53,12h-1.2c-0.3-1.3-0.8-2.5-1.5-3.5l0.9-0.9c0.4-0.4,0.4-1,0-1.4l-1.4-1.4
		c-0.4-0.4-1-0.4-1.4,0l-0.9,0.9c-1-0.7-2.2-1.2-3.5-1.5V3c0-0.6-0.4-1-1-1h-2c-0.6,0-1,0.4-1,1v1.2c-1.3,0.3-2.5,0.8-3.5,1.5
		l-0.9-0.9c-0.4-0.4-1-0.4-1.4,0l-1.4,1.4c-0.4,0.4-0.4,1,0,1.4l0.9,0.9c-0.7,1-1.2,2.2-1.5,3.5H31c-0.6,0-1,0.4-1,1v2
		c0,0.6,0.4,1,1,1h1.2c0.3,1.3,0.8,2.5,1.5,3.5l-0.9,0.9c-0.4,0.4-0.4,1,0,1.4l1.4,1.4c0.4,0.4,1,0.4,1.4,0l0.9-0.9
		c1,0.7,2.2,1.2,3.5,1.5V25c0,0.6,0.4,1,1,1h2c0.6,0,1-0.4,1-1v-1.2c1.3-0.3,2.5-0.8,3.5-1.5l0.9,0.9c0.4,0.4,1,0.4,1.4,0l1.4-1.4
		c0.4-0.4,0.4-1,0-1.4l-0.9-0.9c0.7-1,1.2-2.2,1.5-3.5H53c0.6,0,1-0.4,1-1v-2C54,12.4,53.6,12,53,12z M42,20c-3.3,0-6-2.7-6-6
		s2.7-6,6-6s6,2.7,6,6S45.3,20,42,20z"/>
</g>
<g id="setting">
	<path id="XMLID_5_" class="st3" d="M25,11h-1.5c-0.2-0.6-0.4-1.1-0.7-1.6l0.9-0.9c0.4-0.4,0.4-1,0-1.4L21,4.2c-0.4-0.4-1-0.4-1.4,0
		l-0.9,0.9c-0.5-0.3-1.1-0.5-1.6-0.7V3c0-0.6-0.4-1-1-1h-4c-0.6,0-1,0.4-1,1v1.5C10.5,4.7,10,4.9,9.5,5.2l-1-1C8.3,4,8,3.9,7.8,3.9
		S7.2,4,7,4.2L4.2,7c-0.4,0.4-0.4,1,0,1.4l0.9,0.9C4.9,9.9,4.6,10.4,4.5,11H3c-0.6,0-1,0.4-1,1v4c0,0.6,0.4,1,1,1h1.5
		c0.2,0.6,0.4,1.1,0.7,1.6l-0.9,0.9c-0.4,0.4-0.4,1,0,1.4L7,23.8c0.4,0.4,1,0.4,1.4,0l0.9-0.9c0.5,0.3,1.1,0.5,1.6,0.7V25
		c0,0.6,0.4,1,1,1h4c0.6,0,1-0.4,1-1v-1.5c0.6-0.2,1.1-0.4,1.6-0.7l0.9,0.9c0.2,0.2,0.4,0.3,0.7,0.3s0.5-0.1,0.7-0.3l2.8-2.8
		c0.4-0.4,0.4-1,0-1.4l-0.9-0.9c0.3-0.5,0.5-1.1,0.7-1.6H25c0.6,0,1-0.4,1-1v-4C26,11.4,25.6,11,25,11z M24,15h-1.2
		c-0.5,0-0.9,0.3-1,0.8c-0.2,0.9-0.5,1.7-1,2.5c-0.2,0.4-0.2,0.9,0.1,1.2l0.8,0.8l-1.4,1.4l-0.8-0.8c-0.3-0.3-0.8-0.4-1.2-0.1
		c-0.8,0.5-1.6,0.8-2.5,1c-0.5,0.1-0.8,0.5-0.8,1V24h-2v-1.2c0-0.5-0.3-0.9-0.8-1c-0.9-0.2-1.7-0.5-2.5-1c-0.4-0.2-0.9-0.2-1.2,0.1
		l-0.8,0.8l-1.4-1.4l0.8-0.8c0.3-0.3,0.4-0.8,0.1-1.2c-0.5-0.8-0.8-1.6-1-2.5c-0.1-0.5-0.5-0.8-1-0.8H4v-2h1.2c0.5,0,0.9-0.3,1-0.8
		c0.2-0.9,0.5-1.7,1-2.5c0.2-0.4,0.2-0.9-0.1-1.2L6.3,7.8l1.4-1.4l0.8,0.8c0.3,0.3,0.8,0.4,1.2,0.1c0.8-0.5,1.6-0.8,2.5-1
		c0.5-0.1,0.8-0.5,0.8-1V4h2v1.2c0,0.5,0.3,0.9,0.8,1c0.9,0.2,1.7,0.5,2.5,1c0.4,0.2,0.9,0.2,1.2-0.1l0.8-0.8l1.4,1.4l-0.8,0.8
		c-0.3,0.3-0.4,0.8-0.1,1.2c0.5,0.8,0.8,1.6,1,2.5c0.1,0.5,0.5,0.8,1,0.8H24V15z"/>
	<path id="XMLID_2_" class="st3" d="M14,8c-3.3,0-6,2.7-6,6s2.7,6,6,6s6-2.7,6-6S17.3,8,14,8z M14,18c-2.2,0-4-1.8-4-4s1.8-4,4-4
		s4,1.8,4,4S16.2,18,14,18z"/>
</g>
</svg>
